<?xml version="1.0" encoding="UTF-8" standalone="no"?>
<!-- Created with Inkscape (http://www.inkscape.org/) -->

<svg
   version="1.1"
   id="svg2"
   width="522.89362"
   height="522.89362"
   viewBox="0 0 522.89362 522.89362"
   sodipodi:docname="power button.svg"
   inkscape:version="1.2.1 (9c6d41e410, 2022-07-14)"
   xmlns:inkscape="http://www.inkscape.org/namespaces/inkscape"
   xmlns:sodipodi="http://sodipodi.sourceforge.net/DTD/sodipodi-0.dtd"
   xmlns="http://www.w3.org/2000/svg"
   xmlns:svg="http://www.w3.org/2000/svg">
  <defs
     id="defs6" />
  <sodipodi:namedview
     id="namedview4"
     pagecolor="#ffffff"
     bordercolor="#000000"
     borderopacity="0.25"
     inkscape:showpageshadow="2"
     inkscape:pageopacity="0.0"
     inkscape:pagecheckerboard="0"
     inkscape:deskcolor="#d1d1d1"
     showgrid="false"
     inkscape:zoom="1.1778495"
     inkscape:cx="378.65617"
     inkscape:cy="272.10606"
     inkscape:window-width="941"
     inkscape:window-height="1026"
     inkscape:window-x="0"
     inkscape:window-y="0"
     inkscape:window-maximized="1"
     inkscape:current-layer="g8" />
  <g
     inkscape:groupmode="layer"
     inkscape:label="Image"
     id="g8">
    <path
       style="fill:#bbc2cf;stroke-width:1.02128;fill-opacity:1"
       d="M 235.40426,521.33877 C 181.74378,514.91198 133.76436,491.93383 96.43327,454.78326 58.362827,416.89691 35.141252,370.3598 28.098507,317.83723 26.305584,304.46618 26.055913,274.4649 27.624973,260.93617 c 5.109583,-44.05574 23.064531,-86.64162 51.245596,-121.54525 7.587839,-9.39792 25.486811,-27.39629 32.959221,-33.14225 9.5668,-7.356452 13.23244,-8.716755 23.48936,-8.716755 7.81334,0 10.0337,0.401936 14.80851,2.680685 7.25108,3.46052 13.91524,10.15729 17.15028,17.23421 2.06292,4.51281 2.5667,7.22315 2.56266,13.78723 -0.008,13.04979 -2.35363,16.91711 -22.25398,36.69149 -17.75881,17.64639 -25.60913,28.10589 -34.54901,46.03192 -11.23878,22.53571 -15.942528,41.9251 -16.723498,68.93617 -0.470183,16.26198 -0.244924,20.658 1.617221,31.56086 8.482997,49.66793 38.362277,92.43192 82.030187,117.40371 74.64903,42.68856 171.10515,19.81013 218.99437,-51.94329 14.04133,-21.03841 21.97196,-41.254 26.42644,-67.36238 1.9477,-11.41576 2.19674,-36.75225 0.4722,-48.04188 -5.80336,-37.99169 -22.98746,-70.90536 -50.66021,-97.03228 -13.2514,-12.51117 -16.35789,-15.94492 -18.58228,-20.53989 -8.49416,-17.5466 -1.84447,-37.67909 15.35288,-46.48208 7.61558,-3.898268 19.37339,-4.524861 27.48515,-1.464728 6.59656,2.488528 17.52435,11.305968 30.35824,24.495508 33.33474,34.25853 55.12991,76.83749 63.56095,124.17241 2.77993,15.60752 3.7865,48.51417 1.99239,65.13464 -8.67654,80.37846 -58.17398,150.58422 -131.23408,186.13869 -22.53816,10.96813 -43.71875,17.59875 -68.46799,21.434 -14.71305,2.28 -45.22412,2.77211 -60.25532,0.97186 z m 14.05682,-294.35576 c -6.82589,-2.82669 -13.31302,-7.99202 -16.66764,-13.2715 -6.33354,-9.96768 -6.15378,-6.84566 -5.84273,-101.47349 l 0.28333,-86.195467 2.64953,-5.617021 c 12.26798,-26.0082302 48.72553,-26.9573098 62.06436,-1.615687 4.16726,7.917124 4.30131,11.241496 4.00088,99.217505 l -0.28923,84.69606 -2.73815,5.84204 c -3.24534,6.92421 -9.81239,13.61949 -16.75834,17.0856 -6.68424,3.3355 -20.23195,4.01129 -26.70201,1.33196 z"
       id="path170" />
    <path
       style="fill:#bbc2cf;fill-opacity:1;stroke-width:0.849005"
       d="m 228.80681,520.00781 c -19.73825,-3.07329 -35.4687,-7.27121 -53.0628,-14.16066 C 96.231073,474.71168 39.201184,401.43476 28.346307,316.45785 c -1.655316,-12.95856 -1.407072,-49.44259 0.417313,-61.33189 6.161119,-40.15125 21.163787,-76.21492 45.02969,-108.24312 8.825089,-11.84333 30.24452,-34.04971 39.79492,-41.25699 8.51501,-6.425907 13.2507,-7.872494 24.27917,-7.416422 7.05996,0.291957 8.79165,0.677049 12.83096,2.853342 6.39151,3.44359 13.18804,10.38404 15.95872,16.29666 2.05796,4.39167 2.29489,5.86146 2.29489,14.23633 0,8.7873 -0.15038,9.6106 -2.54535,13.93534 -1.53223,2.76681 -8.57503,10.87716 -17.69405,20.37611 -19.67404,20.49372 -26.84866,30.0156 -35.23955,46.76851 -12.29881,24.55535 -16.272826,40.77673 -17.575528,71.74091 -2.361915,56.14081 27.177068,111.39066 76.672918,143.40936 40.83118,26.41355 93.37078,32.91744 140.60852,17.40595 38.73235,-12.71857 70.97257,-38.79717 91.87815,-74.31877 23.53601,-39.99109 28.89424,-90.46532 14.33396,-135.0251 -5.5998,-17.13747 -16.11902,-36.63052 -27.41637,-50.80501 -2.60519,-3.26867 -11.27695,-12.62895 -19.27059,-20.80062 -17.77763,-18.17358 -18.66128,-19.74107 -18.66594,-33.11119 -0.003,-7.89869 0.25618,-9.46776 2.27228,-13.76921 6.55947,-13.99505 21.82346,-21.936129 37.18443,-19.345167 7.30878,1.232785 14.53903,5.693207 25.83605,15.938547 38.24534,34.68494 64.8771,83.16428 73.50351,133.80271 2.18691,12.83752 3.32327,38.66051 2.47074,56.14561 -2.22058,45.54326 -20.80632,92.98618 -51.38626,131.17126 -7.43215,9.28049 -25.02006,26.86501 -34.27404,34.2674 -26.20461,20.96145 -57.71578,37.01355 -88.55704,45.11184 -21.62747,5.67893 -28.86778,6.55839 -56.62279,6.87777 -21.58547,0.24838 -26.51183,0.0599 -35.65821,-1.3642 z"
       id="path1989" />
  </g>
</svg>
